<svg width="837" height="429" viewBox="0 0 837 429" fill="none" xmlns="http://www.w3.org/2000/svg">
<style>
  #neutral-right-arm,
  #up-left-arm {
    animation: opacityOn 0.2s normal 0s infinite;
  }

  #up-right-arm,
  #neutral-left-arm {
    animation: opacityOff 0.2s normal 0s infinite;
  }

  @keyframes opacityOn {
    0%,
    50% {
      opacity: 0;
    }

    51%,
    100% {
      opacity: 1;
    }
  }

  @keyframes opacityOff {
    0%,
    50% {
      opacity: 1;
    }

    51%,
    100% {
      opacity: 0;
    }
  }
</style>
<g id="bongocat 1" clip-path="url(#clip0)">
<g id="Artboard">
<path id="Line" d="M611.061 255.482L814.5 304.5M13.5 111.5L260.5 171.014L13.5 111.5Z" stroke="black" stroke-width="5" stroke-linecap="round"/>
<path id="keyboard" d="M98.0792 289.837L250.099 179.939L585.271 260.373L405.616 393.695L98.0792 289.837Z" fill="#C4C4C4" stroke="black"/>
<g id="cat body">
<path id="Path" d="M394.695 75.6993C337.32 90.3848 292.72 122.332 260.895 171.54C300.048 181.307 416.844 209.27 611.285 255.43C606.973 231.247 598.927 207.729 587.148 184.875C587.148 165.565 589.98 171.766 594.73 147.32C599.48 122.875 599.48 112.428 594.73 109.02C591.564 106.747 579.134 112.427 557.441 126.059C525.48 96.1303 488.227 79.3438 445.68 75.6993C425.43 53.7462 425.43 45.4532 418.156 45.4532C413.307 45.4532 405.487 55.5352 394.695 75.6993Z" fill="white" stroke="black" stroke-width="5" stroke-linecap="round"/>
<path id="Oval Copy" d="M474.375 188.73C477.591 190.369 482.026 188.107 484.283 183.678C486.54 179.249 485.762 174.331 482.547 172.692C479.332 171.054 474.896 173.316 472.639 177.745C470.383 182.174 471.16 187.092 474.375 188.73Z" fill="black" stroke="black"/>
<path id="Oval Copy 2" d="M366.002 154.71C369.573 156.153 373.863 153.87 375.584 149.611C377.305 145.352 375.805 140.729 372.234 139.287C368.663 137.844 364.373 140.127 362.652 144.386C360.931 148.645 362.431 153.268 366.002 154.71Z" fill="black" stroke="black"/>
<path id="Path 2" d="M392.764 154.83C392.89 162.575 398.77 163.789 410.402 158.473C415.096 169.279 421.592 172.856 430.928 169.279" stroke="black" stroke-width="5" stroke-linecap="round"/>
</g>
<g id="neutral-left-arm">
<path d="M263 169C250.308 198.864 247.399 224.51 255.495 236.938C260.522 244.654 272.244 246.881 284.13 241.678C300.963 234.31 342.094 193.051 346.5 188.5" fill="white"/>
<path d="M263 169C250.308 198.864 247.399 224.51 255.495 236.938C260.522 244.654 272.244 246.881 284.13 241.678C300.963 234.31 342.094 193.051 346.5 188.5" stroke="black" stroke-width="5" stroke-linecap="round"/>
</g>
<g id="up-left-arm">
<path d="M343.143 188.998C347.688 125.565 340.947 125.613 329.765 120.769C315.365 114.531 294.622 124.625 287 132C266.59 149.381 264.574 164.534 262.5 169" fill="white"/>
<path d="M343.143 188.998C347.688 125.565 340.947 125.613 329.765 120.769C315.365 114.531 294.622 124.625 287 132C266.59 149.381 264.574 164.534 262.5 169" stroke="black" stroke-width="5" stroke-linecap="round"/>
</g>
<path id="monitor" opacity="0.5" d="M98.435 290.119L48.6331 35.1332L342.422 92.5677L406.329 393.747L98.435 290.119Z" fill="#C4C4C4" stroke="black"/>
<path id="monitor-screen" opacity="0.5" d="M91 83L311.927 125.11L360 346L128.465 270.022L91 83Z" fill="black" fill-opacity="0.7"/>
<g id="keyboard-keys">
<line id="Line 2" x1="235.117" y1="215.514" x2="509.117" y2="281.514" stroke="black" stroke-opacity="0.2"/>
<line id="Line 3" x1="202.117" y1="230.514" x2="476.117" y2="296.514" stroke="black" stroke-opacity="0.2"/>
<line id="Line 4" x1="185.112" y1="243.683" x2="457.15" y2="317.352" stroke="black" stroke-opacity="0.2"/>
<line id="Line 5" x1="146.844" y1="280.388" x2="415.034" y2="367.024" stroke="black" stroke-opacity="0.2"/>
<line id="Line 6" x1="171.424" y1="263.822" x2="441.057" y2="345.858" stroke="black" stroke-opacity="0.2"/>
<line id="Line 7" x1="164.683" y1="292.613" x2="280.683" y2="197.613" stroke="black" stroke-opacity="0.2"/>
<line id="Line 8" x1="189.683" y1="304.613" x2="305.683" y2="209.613" stroke="black" stroke-opacity="0.2"/>
<line id="Line 9" x1="218.683" y1="317.613" x2="334.683" y2="222.613" stroke="black" stroke-opacity="0.2"/>
<line id="Line 10" x1="247.683" y1="320.613" x2="363.683" y2="225.613" stroke="black" stroke-opacity="0.2"/>
<line id="Line 11" x1="273.683" y1="329.613" x2="389.683" y2="234.613" stroke="black" stroke-opacity="0.2"/>
<line id="Line 12" x1="305.683" y1="335.613" x2="421.683" y2="240.613" stroke="black" stroke-opacity="0.2"/>
<line id="Line 13" x1="340.683" y1="339.613" x2="456.683" y2="244.613" stroke="black" stroke-opacity="0.2"/>
<line id="Line 14" x1="363.683" y1="348.613" x2="479.683" y2="253.613" stroke="black" stroke-opacity="0.2"/>
<line id="Line 15" x1="389.683" y1="361.613" x2="505.683" y2="266.613" stroke="black" stroke-opacity="0.2"/>
</g>
<g id="row12">
<g id="Rectangle 41" opacity="0.5">
<path d="M266.666 299.029L342.918 322.159L345.414 330.118L269.083 306.549L266.666 299.029Z" fill="#83A598"/>
<path d="M266.666 299.029L342.918 322.159L345.414 330.118L269.083 306.549L266.666 299.029Z" fill="#83A598"/>
</g>
<g id="Rectangle 42" opacity="0.5">
<path d="M211.434 281.018L260.357 295.858L261.241 303.328L212.31 288.07L211.434 281.018Z" fill="#83A598"/>
<path d="M211.434 281.018L260.357 295.858L261.241 303.328L212.31 288.07L211.434 281.018Z" fill="#83A598"/>
</g>
<g id="Rectangle 43" opacity="0.5">
<path d="M189.5 273.465L205.844 278.422L204.807 285.31L188.537 279.959L189.5 273.465Z" fill="#83A598"/>
<path d="M189.5 273.465L205.844 278.422L204.807 285.31L188.537 279.959L189.5 273.465Z" fill="#83A598"/>
</g>
<g id="Rectangle 44" opacity="0.5">
<path d="M135.009 256.296L181.563 270.417L182.308 277.845L135.751 263.307L135.009 256.296Z" fill="#83A598"/>
<path d="M135.009 256.296L181.563 270.417L182.308 277.845L135.751 263.307L135.009 256.296Z" fill="#83A598"/>
</g>
</g>
<g id="row10">
<g id="Rectangle 50" opacity="0.5">
<path d="M239.325 258.325L334.677 287.249L338.299 295.549L242.82 266.172L239.325 258.325Z" fill="#83A598"/>
<path d="M239.325 258.325L334.677 287.249L338.299 295.549L242.82 266.172L239.325 258.325Z" fill="#83A598"/>
</g>
<g id="Rectangle 51" opacity="0.5">
<path d="M129.391 226.709L225.68 252.344L229.584 260.515L133.153 234.431L129.391 226.709Z" fill="#83A598"/>
<path d="M129.391 226.709L225.68 252.344L229.584 260.515L133.153 234.431L129.391 226.709Z" fill="#83A598"/>
</g>
</g>
<g id="row11">
<g id="Rectangle 45" opacity="0.5">
<path d="M294 292L340.555 306.121L341.299 313.549L294.742 299.012L294 292Z" fill="#83A598"/>
<path d="M294 292L340.555 306.121L341.299 313.549L294.742 299.012L294 292Z" fill="#83A598"/>
</g>
<g id="Rectangle 46" opacity="0.5">
<path d="M257.43 279.68L289.414 289.382L289.299 296.549L257.349 286.442L257.43 279.68Z" fill="#83A598"/>
<path d="M257.43 279.68L289.414 289.382L289.299 296.549L257.349 286.442L257.43 279.68Z" fill="#83A598"/>
</g>
<g id="Rectangle 47" opacity="0.5">
<path d="M220 268L251.984 277.702L251.87 284.869L219.92 274.762L220 268Z" fill="#83A598"/>
<path d="M220 268L251.984 277.702L251.87 284.869L219.92 274.762L220 268Z" fill="#83A598"/>
</g>
<g id="Rectangle 48" opacity="0.5">
<path d="M157.732 246.942L211.689 263.309L212.87 270.869L158.892 254.08L157.732 246.942Z" fill="#83A598"/>
<path d="M157.732 246.942L211.689 263.309L212.87 270.869L158.892 254.08L157.732 246.942Z" fill="#83A598"/>
</g>
<g id="Rectangle 49" opacity="0.5">
<path d="M133.336 242.002L150.829 245.084L150.665 252.053L133.196 248.572L133.336 242.002Z" fill="#83A598"/>
<path d="M133.336 242.002L150.829 245.084L150.665 252.053L133.196 248.572L133.336 242.002Z" fill="#83A598"/>
</g>
</g>
<g id="row9">
<g id="Rectangle 52" opacity="0.5">
<path d="M258.953 249.961L333.869 268.637L336.619 276.426L261.609 257.316L258.953 249.961Z" fill="#83A598"/>
<path d="M258.953 249.961L333.869 268.637L336.619 276.426L261.609 257.316L258.953 249.961Z" fill="#83A598"/>
</g>
<g id="Rectangle 53" opacity="0.5">
<path d="M196.835 233.773L246.096 246.053L247.333 253.464L198.043 240.767L196.835 233.773Z" fill="#83A598"/>
<path d="M196.835 233.773L246.096 246.053L247.333 253.464L198.043 240.767L196.835 233.773Z" fill="#83A598"/>
</g>
<g id="Rectangle 54" opacity="0.5">
<path d="M127.667 213L188.704 228.216L190.635 235.8L129.54 220.16L127.667 213Z" fill="#83A598"/>
<path d="M127.667 213L188.704 228.216L190.635 235.8L129.54 220.16L127.667 213Z" fill="#83A598"/>
</g>
</g>
<g id="row8">
<g id="Rectangle 38" opacity="0.5">
<path d="M255.523 233.297L331.034 249.399L334.049 257.089L258.429 240.558L255.523 233.297Z" fill="#83A598"/>
<path d="M255.523 233.297L331.034 249.399L334.049 257.089L258.429 240.558L255.523 233.297Z" fill="#83A598"/>
</g>
<g id="Rectangle 39" opacity="0.5">
<path d="M171.746 212.583L246.951 230.06L249.826 237.803L174.52 219.895L171.746 212.583Z" fill="#83A598"/>
<path d="M171.746 212.583L246.951 230.06L249.826 237.803L174.52 219.895L171.746 212.583Z" fill="#83A598"/>
</g>
<g id="Rectangle 40" opacity="0.5">
<path d="M123.792 200.779L165.435 211.376L166.19 218.68L124.54 207.671L123.792 200.779Z" fill="#83A598"/>
<path d="M123.792 200.779L165.435 211.376L166.19 218.68L124.54 207.671L123.792 200.779Z" fill="#83A598"/>
</g>
</g>
<g id="row7">
<g id="Rectangle 33" opacity="0.5">
<path d="M281.317 225L326.393 233.774L327.734 241.056L282.619 231.87L281.317 225Z" fill="#83A598"/>
<path d="M281.317 225L326.393 233.774L327.734 241.056L282.619 231.87L281.317 225Z" fill="#83A598"/>
</g>
<g id="Rectangle 34" opacity="0.5">
<path d="M211.317 209L271.055 220.628L273.26 228.078L213.447 216.031L211.317 209Z" fill="#83A598"/>
<path d="M211.317 209L271.055 220.628L273.26 228.078L213.447 216.031L211.317 209Z" fill="#83A598"/>
</g>
<g id="Rectangle 35" opacity="0.5">
<path d="M177.317 202L205.064 207.401L205.384 214.484L177.642 208.679L177.317 202Z" fill="#83A598"/>
<path d="M177.317 202L205.064 207.401L205.384 214.484L177.642 208.679L177.317 202Z" fill="#83A598"/>
</g>
<g id="Rectangle 36" opacity="0.5">
<path d="M156.317 196L172.181 199.088L171.799 206.035L155.971 202.549L156.317 196Z" fill="#83A598"/>
<path d="M156.317 196L172.181 199.088L171.799 206.035L155.971 202.549L156.317 196Z" fill="#83A598"/>
</g>
<g id="Rectangle 37" opacity="0.5">
<path d="M121.317 189L148.696 194.329L148.994 201.409L121.621 195.675L121.317 189Z" fill="#83A598"/>
<path d="M121.317 189L148.696 194.329L148.994 201.409L121.621 195.675L121.317 189Z" fill="#83A598"/>
</g>
</g>
<g id="row6">
<g id="Rectangle 29" opacity="0.5">
<path d="M226.356 199.282L322.757 218.047L327.124 225.918L230.554 206.716L226.356 199.282Z" fill="#83A598"/>
<path d="M226.356 199.282L322.757 218.047L327.124 225.918L230.554 206.716L226.356 199.282Z" fill="#83A598"/>
</g>
<g id="Rectangle 30" opacity="0.5">
<path d="M186.119 189.224L223.215 196.445L224.086 203.636L186.971 196.007L186.119 189.224Z" fill="#83A598"/>
<path d="M186.119 189.224L223.215 196.445L224.086 203.636L186.971 196.007L186.119 189.224Z" fill="#83A598"/>
</g>
<g id="Rectangle 31" opacity="0.5">
<path d="M171.73 185.336L182.939 187.518L182.283 194.411L171.122 191.834L171.73 185.336Z" fill="#83A598"/>
<path d="M171.73 185.336L182.939 187.518L182.283 194.411L171.122 191.834L171.73 185.336Z" fill="#83A598"/>
</g>
<g id="Rectangle 32" opacity="0.5">
<path d="M116.665 175.476L164.374 184.763L165.87 192.075L118.116 182.375L116.665 175.476Z" fill="#83A598"/>
<path d="M116.665 175.476L164.374 184.763L165.87 192.075L118.116 182.375L116.665 175.476Z" fill="#83A598"/>
</g>
</g>
<g id="row5">
<g id="Rectangle 26" opacity="0.5">
<path d="M244.317 187L318.716 201.482L321.786 209.101L247.274 194.192L244.317 187Z" fill="#83A598"/>
<path d="M244.317 187L318.716 201.482L321.786 209.101L247.274 194.192L244.317 187Z" fill="#83A598"/>
</g>
<g id="Rectangle 27" opacity="0.5">
<path d="M203.06 178.125L238.04 184.934L238.786 192.101L203.793 184.884L203.06 178.125Z" fill="#83A598"/>
<path d="M203.06 178.125L238.04 184.934L238.786 192.101L203.793 184.884L203.06 178.125Z" fill="#83A598"/>
</g>
<g id="Rectangle 28" opacity="0.5">
<path d="M111.235 159.057L194.453 175.255L198.042 182.975L114.69 166.346L111.235 159.057Z" fill="#83A598"/>
<path d="M111.235 159.057L194.453 175.255L198.042 182.975L114.69 166.346L111.235 159.057Z" fill="#83A598"/>
</g>
</g>
<g id="row4">
<g id="Rectangle 21" opacity="0.5">
<path d="M303.317 186L317.343 188.73L316.854 195.656L302.867 192.529L303.317 186Z" fill="#83A598"/>
<path d="M303.317 186L317.343 188.73L316.854 195.656L302.867 192.529L303.317 186Z" fill="#83A598"/>
</g>
<g id="Rectangle 22" opacity="0.5">
<path d="M242.317 172L295.377 182.328L297.189 189.702L244.07 178.957L242.317 172Z" fill="#83A598"/>
<path d="M242.317 172L295.377 182.328L297.189 189.702L244.07 178.957L242.317 172Z" fill="#83A598"/>
</g>
<g id="Rectangle 23" opacity="0.5">
<path d="M168.317 156L236.857 169.341L239.582 176.893L170.943 163.128L168.317 156Z" fill="#83A598"/>
<path d="M168.317 156L236.857 169.341L239.582 176.893L170.943 163.128L168.317 156Z" fill="#83A598"/>
</g>
<g id="Rectangle 24" opacity="0.5">
<path d="M131.317 148L164.883 154.534L165.546 161.684L131.97 154.743L131.317 148Z" fill="#83A598"/>
<path d="M131.317 148L164.883 154.534L165.546 161.684L131.97 154.743L131.317 148Z" fill="#83A598"/>
</g>
<g id="Rectangle 25" opacity="0.5">
<path d="M110.266 142.433L126.923 145.675L126.589 152.631L109.965 148.991L110.266 142.433Z" fill="#83A598"/>
<path d="M110.266 142.433L126.923 145.675L126.589 152.631L109.965 148.991L110.266 142.433Z" fill="#83A598"/>
</g>
</g>
<g id="row3">
<g id="Rectangle 19" opacity="0.5">
<path d="M139.317 133L217.408 148.201L220.696 155.862L142.482 140.232L139.317 133Z" fill="#83A598"/>
<path d="M139.317 133L217.408 148.201L220.696 155.862L142.482 140.232L139.317 133Z" fill="#83A598"/>
</g>
<g id="Rectangle 17" opacity="0.5">
<path d="M250.096 157.285L313.045 169.538L315.44 177.026L252.407 164.351L250.096 157.285Z" fill="#83A598"/>
<path d="M250.096 157.285L313.045 169.538L315.44 177.026L252.407 164.351L250.096 157.285Z" fill="#83A598"/>
</g>
<g id="Rectangle 18" opacity="0.5">
<path d="M225.237 151.549L246.712 155.729L246.661 162.741L225.208 158.16L225.237 151.549Z" fill="#83A598"/>
<path d="M225.237 151.549L246.712 155.729L246.661 162.741L225.208 158.16L225.237 151.549Z" fill="#83A598"/>
</g>
<g id="Rectangle 20" opacity="0.5">
<path d="M106.317 125L136.109 130.799L136.549 137.906L106.757 131.702L106.317 125Z" fill="#83A598"/>
<path d="M106.317 125L136.109 130.799L136.549 137.906L106.757 131.702L106.317 125Z" fill="#83A598"/>
</g>
</g>
<g id="row2">
<g id="Rectangle 13" opacity="0.5">
<path d="M271.165 146.474L311.242 154.275L312.288 161.5L272.186 153.289L271.165 146.474Z" fill="#83A598"/>
<path d="M271.165 146.474L311.242 154.275L312.288 161.5L272.186 153.289L271.165 146.474Z" fill="#83A598"/>
</g>
<g id="Rectangle 14" opacity="0.5">
<path d="M214.48 134.696L265.735 144.673L267.44 152.026L216.131 141.634L214.48 134.696Z" fill="#83A598"/>
<path d="M214.48 134.696L265.735 144.673L267.44 152.026L216.131 141.634L214.48 134.696Z" fill="#83A598"/>
</g>
<g id="Rectangle 15" opacity="0.5">
<path d="M189.684 129.106L211.318 133.317L211.277 140.33L189.664 135.718L189.684 129.106Z" fill="#83A598"/>
<path d="M189.684 129.106L211.318 133.317L211.277 140.33L189.664 135.718L189.684 129.106Z" fill="#83A598"/>
</g>
<g id="Rectangle 16" opacity="0.5">
<path d="M101.733 111.013L181.522 126.544L184.91 134.224L104.994 118.264L101.733 111.013Z" fill="#83A598"/>
<path d="M101.733 111.013L181.522 126.544L184.91 134.224L104.994 118.264L101.733 111.013Z" fill="#83A598"/>
</g>
</g>
<g id="row1">
<g id="Rectangle 9" opacity="0.5">
<path d="M249.529 126L306.46 137.082L308.5 144.5L251.5 133L249.529 126Z" fill="#83A598"/>
<path d="M249.529 126L306.46 137.082L308.5 144.5L251.5 133L249.529 126Z" fill="#83A598"/>
</g>
<g id="Rectangle 10" opacity="0.5">
<path d="M205.636 116.761L244.324 124.291L245.288 131.5L206.578 123.56L205.636 116.761Z" fill="#83A598"/>
<path d="M205.636 116.761L244.324 124.291L245.288 131.5L206.578 123.56L205.636 116.761Z" fill="#83A598"/>
</g>
<g id="Rectangle 11" opacity="0.5">
<path d="M145.209 104.059L198.163 114.367L199.969 121.739L146.957 111.016L145.209 104.059Z" fill="#83A598"/>
<path d="M145.209 104.059L198.163 114.367L199.969 121.739L146.957 111.016L145.209 104.059Z" fill="#83A598"/>
</g>
<g id="Rectangle 12" opacity="0.5">
<path d="M99.5703 94.3852L140.953 102.44L142.076 109.68L100.664 101.214L99.5703 94.3852Z" fill="#83A598"/>
<path d="M99.5703 94.3852L140.953 102.44L142.076 109.68L100.664 101.214L99.5703 94.3852Z" fill="#83A598"/>
</g>
</g>
<g id="up-right-arm">
<path d="M563 240.5C566.5 177 559.76 177.16 548.5 172.5C534 166.5 510.5 177.5 503 185C482.879 202.715 480.5 217 478.5 221.5" fill="white"/>
<path d="M563 240.5C566.5 177 559.76 177.16 548.5 172.5C534 166.5 510.5 177.5 503 185C482.879 202.715 480.5 217 478.5 221.5" stroke="black" stroke-width="5" stroke-linecap="round"/>
</g>
<g id="neutral-right-arm">
<path d="M479.5 218.5C462.218 251.308 450.001 276.539 461.026 290.193C467.87 298.669 483.833 301.115 500.018 295.4C522.94 287.306 559 242 565 237" fill="white"/>
<path d="M479.5 218.5C462.218 251.308 450.001 276.539 461.026 290.193C467.87 298.669 483.833 301.115 500.018 295.4C522.94 287.306 559 242 565 237" stroke="black" stroke-width="5" stroke-linecap="round"/>
</g>
</g>
</g>
<defs>
<clipPath id="clip0">
<rect width="837" height="429" fill="white"/>
</clipPath>
</defs>
</svg>
